<svg width="73" height="30" viewBox="0 0 73 30" fill="none" xmlns="http://www.w3.org/2000/svg">
<path d="M4.09768 0.937988H2.72018V27.2817H4.09768V0.937988Z" fill="#406EB2"/>
<path d="M7.14951 0.937988H5.77201V27.2817H7.14951V0.937988Z" fill="#406EB2"/>
<path d="M13.2493 0.937988H11.8718V27.2817H13.2493V0.937988Z" fill="#406EB2"/>
<path d="M16.2973 0.937988H14.9198V27.2817H16.2973V0.937988Z" fill="#406EB2"/>
<path d="M22.3971 0.937988H21.0196V27.2817H22.3971V0.937988Z" fill="#406EB2"/>
<path d="M25.4489 0.937988H24.0714V27.2817H25.4489V0.937988Z" fill="#406EB2"/>
<path d="M31.5488 0.937988H30.1713V27.2817H31.5488V0.937988Z" fill="#406EB2"/>
<path d="M34.5967 0.937988H33.2192V27.2817H34.5967V0.937988Z" fill="#406EB2"/>
<path d="M40.6965 0.937988H39.319V27.2817H40.6965V0.937988Z" fill="#406EB2"/>
<path d="M43.7445 0.937988H42.367V27.2817H43.7445V0.937988Z" fill="#406EB2"/>
<path d="M49.8443 0.937988H48.4668V27.2817H49.8443V0.937988Z" fill="#406EB2"/>
<path d="M52.8961 0.937988H51.5186V27.2817H52.8961V0.937988Z" fill="#406EB2"/>
<path d="M58.996 0.937988H57.6185V27.2817H58.996V0.937988Z" fill="#406EB2"/>
<path d="M62.0439 0.937988H60.6664V27.2817H62.0439V0.937988Z" fill="#406EB2"/>
<path d="M68.1438 0.937988H66.7663V27.2817H68.1438V0.937988Z" fill="#406EB2"/>
<path d="M71.1956 0.937988H69.8181V27.2817H71.1956V0.937988Z" fill="#406EB2"/>
<path d="M4.09771 10.8657H2.72021V27.2854H4.09771V10.8657Z" fill="url(#paint0_linear_736_5487)"/>
<path d="M7.14959 17.5137H5.77209V27.2817H7.14959V17.5137Z" fill="url(#paint1_linear_736_5487)"/>
<path d="M13.2493 15.71H11.8718V27.2817H13.2493V15.71Z" fill="url(#paint2_linear_736_5487)"/>
<path d="M16.2973 12.5554H14.9198V27.2817H16.2973V12.5554Z" fill="url(#paint3_linear_736_5487)"/>
<path d="M22.3972 14.1345H21.0197V27.2855H22.3972V14.1345Z" fill="url(#paint4_linear_736_5487)"/>
<path d="M25.449 17.8142H24.0715V27.2817H25.449V17.8142Z" fill="url(#paint5_linear_736_5487)"/>
<path d="M31.5488 16.8401H30.1713V27.2855H31.5488V16.8401Z" fill="url(#paint6_linear_736_5487)"/>
<path d="M34.5967 13.3811H33.2192V27.2817H34.5967V13.3811Z" fill="url(#paint7_linear_736_5487)"/>
<path d="M40.6966 9.7395H39.3191V27.2855H40.6966V9.7395Z" fill="url(#paint8_linear_736_5487)"/>
<path d="M43.7446 16.311H42.3671V27.2816H43.7446V16.311Z" fill="url(#paint9_linear_736_5487)"/>
<path d="M49.8443 11.0903H48.4668V27.2817H49.8443V11.0903Z" fill="url(#paint10_linear_736_5487)"/>
<path d="M52.8962 19.6941H51.5187V27.2818H52.8962V19.6941Z" fill="url(#paint11_linear_736_5487)"/>
<path d="M58.996 15.5996H57.6185V27.2855H58.996V15.5996Z" fill="url(#paint12_linear_736_5487)"/>
<path d="M62.044 13.3811H60.6665V27.2817H62.044V13.3811Z" fill="url(#paint13_linear_736_5487)"/>
<path d="M68.1439 10.4131H66.7664V27.2818H68.1439V10.4131Z" fill="url(#paint14_linear_736_5487)"/>
<path d="M71.1956 14.6978H69.8181V27.2855H71.1956V14.6978Z" fill="url(#paint15_linear_736_5487)"/>
<path d="M72.809 27.4532H0.132534V0.945801H0.41031V27.1754H72.809V27.4532Z" fill="white"/>
<path d="M2.49764 29.9731V28.7998H2.82884C2.93092 28.7998 3.02117 28.8224 3.09961 28.8675C3.17804 28.9127 3.23848 28.9768 3.28092 29.0601C3.3239 29.1434 3.34566 29.239 3.3462 29.347V29.4219C3.3462 29.5326 3.32471 29.6296 3.28173 29.7129C3.23929 29.7961 3.17831 29.8601 3.0988 29.9046C3.01983 29.9492 2.92769 29.9721 2.82239 29.9731H2.49764ZM2.65236 28.9272V29.8466H2.81514C2.93441 29.8466 3.02708 29.8096 3.09316 29.7354C3.15978 29.6613 3.19308 29.5557 3.19308 29.4187V29.3502C3.19308 29.217 3.16166 29.1136 3.0988 29.04C3.03648 28.9658 2.94784 28.9282 2.83287 28.9272H2.65236ZM4.21087 29.6669H3.7193L3.6089 29.9731H3.44934L3.89739 28.7998H4.03278L4.48163 29.9731H4.32288L4.21087 29.6669ZM3.76604 29.5396H4.16494L3.96509 28.9908L3.76604 29.5396ZM5.3455 28.9272H4.96836V29.9731H4.81445V28.9272H4.43812V28.7998H5.3455V28.9272ZM6.103 29.6669H5.61143L5.50103 29.9731H5.34147L5.78952 28.7998H5.92491L6.37376 29.9731H6.21501L6.103 29.6669ZM5.65817 29.5396H6.05706L5.85721 28.9908L5.65817 29.5396ZM7.63814 29.4727C7.63814 29.6473 7.60832 29.7771 7.54869 29.8619C7.48905 29.9468 7.39584 29.9893 7.26906 29.9893C7.14388 29.9893 7.05121 29.9479 6.99104 29.8652C6.93087 29.7819 6.89971 29.6578 6.89756 29.4929V29.2938C6.89756 29.1214 6.92738 28.9932 6.98701 28.9094C7.04664 28.8256 7.14012 28.7837 7.26745 28.7837C7.3937 28.7837 7.48664 28.8243 7.54627 28.9054C7.6059 28.986 7.63652 29.1106 7.63814 29.2793V29.4727ZM7.48905 29.2688C7.48905 29.1426 7.47133 29.0507 7.43587 28.9932C7.40041 28.9352 7.34427 28.9062 7.26745 28.9062C7.19116 28.9062 7.13556 28.9349 7.10064 28.9924C7.06572 29.0499 7.04772 29.1383 7.04664 29.2576V29.4961C7.04664 29.6229 7.06491 29.7166 7.10144 29.7773C7.13851 29.8375 7.19438 29.8676 7.26906 29.8676C7.34266 29.8676 7.39719 29.8391 7.43264 29.7822C7.46864 29.7252 7.48744 29.6355 7.48905 29.513V29.2688ZM8.31908 29.9731H8.16919V28.9795L7.86861 29.0899V28.9546L8.29571 28.7942H8.31908V29.9731Z" fill="#F5F7F6"/>
<path d="M11.2906 29.9731V28.7998H11.6218C11.7239 28.7998 11.8141 28.8224 11.8926 28.8675C11.971 28.9127 12.0314 28.9768 12.0739 29.0601C12.1169 29.1434 12.1386 29.239 12.1392 29.347V29.4219C12.1392 29.5326 12.1177 29.6296 12.0747 29.7129C12.0323 29.7961 11.9713 29.8601 11.8918 29.9046C11.8128 29.9492 11.7207 29.9721 11.6154 29.9731H11.2906ZM11.4453 28.9272V29.8466H11.6081C11.7274 29.8466 11.82 29.8096 11.8861 29.7354C11.9527 29.6613 11.9861 29.5557 11.9861 29.4187V29.3502C11.9861 29.217 11.9546 29.1136 11.8918 29.04C11.8294 28.9658 11.7408 28.9282 11.6258 28.9272H11.4453ZM13.0038 29.6669H12.5123L12.4019 29.9731H12.2423L12.6904 28.7998H12.8257L13.2746 29.9731H13.1159L13.0038 29.6669ZM12.559 29.5396H12.9579L12.7581 28.9908L12.559 29.5396ZM14.1385 28.9272H13.7613V29.9731H13.6074V28.9272H13.2311V28.7998H14.1385V28.9272ZM14.896 29.6669H14.4044L14.294 29.9731H14.1344L14.5825 28.7998H14.7179L15.1667 29.9731H15.008L14.896 29.6669ZM14.4511 29.5396H14.85L14.6502 28.9908L14.4511 29.5396ZM16.4311 29.4727C16.4311 29.6473 16.4013 29.7771 16.3417 29.8619C16.282 29.9468 16.1888 29.9893 16.062 29.9893C15.9369 29.9893 15.8442 29.9479 15.784 29.8652C15.7238 29.7819 15.6927 29.6578 15.6905 29.4929V29.2938C15.6905 29.1214 15.7203 28.9932 15.78 28.9094C15.8396 28.8256 15.9331 28.7837 16.0604 28.7837C16.1867 28.7837 16.2796 28.8243 16.3392 28.9054C16.3989 28.986 16.4295 29.1106 16.4311 29.2793V29.4727ZM16.282 29.2688C16.282 29.1426 16.2643 29.0507 16.2288 28.9932C16.1934 28.9352 16.1372 28.9062 16.0604 28.9062C15.9841 28.9062 15.9285 28.9349 15.8936 28.9924C15.8587 29.0499 15.8407 29.1383 15.8396 29.2576V29.4961C15.8396 29.6229 15.8579 29.7166 15.8944 29.7773C15.9315 29.8375 15.9874 29.8676 16.062 29.8676C16.1356 29.8676 16.1902 29.8391 16.2256 29.7822C16.2616 29.7252 16.2804 29.6355 16.282 29.513V29.2688ZM17.3909 29.9731H16.6221V29.866L17.0282 29.4147C17.0884 29.3465 17.1298 29.2911 17.1523 29.2487C17.1754 29.2057 17.187 29.1614 17.187 29.1157C17.187 29.0545 17.1685 29.0042 17.1314 28.965C17.0943 28.9258 17.0449 28.9062 16.9831 28.9062C16.909 28.9062 16.8512 28.9274 16.8099 28.9699C16.769 29.0118 16.7486 29.0703 16.7486 29.1455H16.5995C16.5995 29.0376 16.6342 28.9503 16.7035 28.8836C16.7733 28.817 16.8665 28.7837 16.9831 28.7837C17.0922 28.7837 17.1784 28.8125 17.2418 28.8699C17.3052 28.9269 17.3369 29.0029 17.3369 29.098C17.3369 29.2135 17.2633 29.351 17.1161 29.5106L16.8018 29.8515H17.3909V29.9731Z" fill="#F5F7F6"/>
<path d="M20.1314 29.9731V28.7998H20.4626C20.5647 28.7998 20.655 28.8224 20.7334 28.8675C20.8118 28.9127 20.8723 28.9768 20.9147 29.0601C20.9577 29.1434 20.9794 29.239 20.98 29.347V29.4219C20.98 29.5326 20.9585 29.6296 20.9155 29.7129C20.8731 29.7961 20.8121 29.8601 20.7326 29.9046C20.6536 29.9492 20.5615 29.9721 20.4562 29.9731H20.1314ZM20.2861 28.9272V29.8466H20.4489C20.5682 29.8466 20.6609 29.8096 20.7269 29.7354C20.7936 29.6613 20.8269 29.5557 20.8269 29.4187V29.3502C20.8269 29.217 20.7954 29.1136 20.7326 29.04C20.6703 28.9658 20.5816 28.9282 20.4667 28.9272H20.2861ZM21.8447 29.6669H21.3531L21.2427 29.9731H21.0831L21.5312 28.7998H21.6666L22.1154 29.9731H21.9567L21.8447 29.6669ZM21.3998 29.5396H21.7987L21.5989 28.9908L21.3998 29.5396ZM22.9793 28.9272H22.6022V29.9731H22.4482V28.9272H22.0719V28.7998H22.9793V28.9272ZM23.7368 29.6669H23.2452L23.1348 29.9731H22.9753L23.4233 28.7998H23.5587L24.0076 29.9731H23.8488L23.7368 29.6669ZM23.292 29.5396H23.6909L23.491 28.9908L23.292 29.5396ZM25.2719 29.4727C25.2719 29.6473 25.2421 29.7771 25.1825 29.8619C25.1228 29.9468 25.0296 29.9893 24.9028 29.9893C24.7777 29.9893 24.685 29.9479 24.6248 29.8652C24.5647 29.7819 24.5335 29.6578 24.5314 29.4929V29.2938C24.5314 29.1214 24.5612 28.9932 24.6208 28.9094C24.6804 28.8256 24.7739 28.7837 24.9012 28.7837C25.0275 28.7837 25.1204 28.8243 25.1801 28.9054C25.2397 28.986 25.2703 29.1106 25.2719 29.2793V29.4727ZM25.1228 29.2688C25.1228 29.1426 25.1051 29.0507 25.0697 28.9932C25.0342 28.9352 24.9781 28.9062 24.9012 28.9062C24.8249 28.9062 24.7693 28.9349 24.7344 28.9924C24.6995 29.0499 24.6815 29.1383 24.6804 29.2576V29.4961C24.6804 29.6229 24.6987 29.7166 24.7352 29.7773C24.7723 29.8375 24.8282 29.8676 24.9028 29.8676C24.9764 29.8676 25.031 29.8391 25.0664 29.7822C25.1024 29.7252 25.1212 29.6355 25.1228 29.513V29.2688ZM25.6797 29.314H25.7917C25.8621 29.3129 25.9174 29.2944 25.9577 29.2584C25.998 29.2224 26.0181 29.1737 26.0181 29.1125C26.0181 28.975 25.9496 28.9062 25.8126 28.9062C25.7482 28.9062 25.6966 28.9247 25.6579 28.9618C25.6198 28.9983 25.6007 29.047 25.6007 29.1077H25.4516C25.4516 29.0147 25.4855 28.9376 25.5532 28.8764C25.6214 28.8146 25.7079 28.7837 25.8126 28.7837C25.9233 28.7837 26.0101 28.813 26.0729 28.8716C26.1358 28.9301 26.1672 29.0115 26.1672 29.1157C26.1672 29.1668 26.1506 29.2162 26.1173 29.264C26.0845 29.3118 26.0396 29.3475 25.9827 29.3712C26.0471 29.3916 26.0968 29.4254 26.1318 29.4727C26.1672 29.52 26.1849 29.5777 26.1849 29.646C26.1849 29.7513 26.1506 29.8348 26.0818 29.8966C26.013 29.9584 25.9236 29.9893 25.8135 29.9893C25.7033 29.9893 25.6136 29.9594 25.5443 29.8998C25.4755 29.8402 25.4412 29.7615 25.4412 29.6637H25.591C25.591 29.7255 25.6112 29.7749 25.6515 29.812C25.6918 29.849 25.7458 29.8676 25.8135 29.8676C25.8854 29.8676 25.9405 29.8488 25.9787 29.8112C26.0168 29.7736 26.0359 29.7196 26.0359 29.6492C26.0359 29.581 26.0149 29.5286 25.973 29.4921C25.9311 29.4555 25.8707 29.4367 25.7917 29.4356H25.6797V29.314Z" fill="#F5F7F6"/>
<path d="M29.4076 29.9731V28.7998H29.7388C29.8408 28.7998 29.9311 28.8224 30.0095 28.8675C30.088 28.9127 30.1484 28.9768 30.1908 29.0601C30.2338 29.1434 30.2556 29.239 30.2561 29.347V29.4219C30.2561 29.5326 30.2346 29.6296 30.1916 29.7129C30.1492 29.7961 30.0882 29.8601 30.0087 29.9046C29.9297 29.9492 29.8376 29.9721 29.7323 29.9731H29.4076ZM29.5623 28.9272V29.8466H29.7251C29.8443 29.8466 29.937 29.8096 30.0031 29.7354C30.0697 29.6613 30.103 29.5557 30.103 29.4187V29.3502C30.103 29.217 30.0716 29.1136 30.0087 29.04C29.9464 28.9658 29.8578 28.9282 29.7428 28.9272H29.5623ZM31.1208 29.6669H30.6292L30.5188 29.9731H30.3593L30.8073 28.7998H30.9427L31.3915 29.9731H31.2328L31.1208 29.6669ZM30.676 29.5396H31.0748L30.875 28.9908L30.676 29.5396ZM32.2554 28.9272H31.8783V29.9731H31.7244V28.9272H31.348V28.7998H32.2554V28.9272ZM33.0129 29.6669H32.5213L32.4109 29.9731H32.2514L32.6994 28.7998H32.8348L33.2837 29.9731H33.1249L33.0129 29.6669ZM32.5681 29.5396H32.967L32.7671 28.9908L32.5681 29.5396ZM34.548 29.4727C34.548 29.6473 34.5182 29.7771 34.4586 29.8619C34.399 29.9468 34.3058 29.9893 34.179 29.9893C34.0538 29.9893 33.9611 29.9479 33.901 29.8652C33.8408 29.7819 33.8096 29.6578 33.8075 29.4929V29.2938C33.8075 29.1214 33.8373 28.9932 33.8969 28.9094C33.9566 28.8256 34.05 28.7837 34.1774 28.7837C34.3036 28.7837 34.3965 28.8243 34.4562 28.9054C34.5158 28.986 34.5464 29.1106 34.548 29.2793V29.4727ZM34.399 29.2688C34.399 29.1426 34.3812 29.0507 34.3458 28.9932C34.3103 28.9352 34.2542 28.9062 34.1774 28.9062C34.1011 28.9062 34.0455 28.9349 34.0105 28.9924C33.9756 29.0499 33.9576 29.1383 33.9566 29.2576V29.4961C33.9566 29.6229 33.9748 29.7166 34.0114 29.7773C34.0484 29.8375 34.1043 29.8676 34.179 29.8676C34.2526 29.8676 34.3071 29.8391 34.3426 29.7822C34.3786 29.7252 34.3974 29.6355 34.399 29.513V29.2688ZM35.3684 29.5791H35.5312V29.7008H35.3684V29.9731H35.2185V29.7008H34.6842V29.6129L35.2096 28.7998H35.3684V29.5791ZM34.8535 29.5791H35.2185V29.0037L35.2008 29.0359L34.8535 29.5791Z" fill="#F5F7F6"/>
<path d="M38.571 29.9731V28.7998H38.9022C39.0043 28.7998 39.0945 28.8224 39.173 28.8675C39.2514 28.9127 39.3118 28.9768 39.3543 29.0601C39.3973 29.1434 39.419 29.239 39.4196 29.347V29.4219C39.4196 29.5326 39.3981 29.6296 39.3551 29.7129C39.3127 29.7961 39.2517 29.8601 39.1722 29.9046C39.0932 29.9492 39.0011 29.9721 38.8958 29.9731H38.571ZM38.7257 28.9272V29.8466H38.8885C39.0078 29.8466 39.1004 29.8096 39.1665 29.7354C39.2331 29.6613 39.2664 29.5557 39.2664 29.4187V29.3502C39.2664 29.217 39.235 29.1136 39.1722 29.04C39.1098 28.9658 39.0212 28.9282 38.9062 28.9272H38.7257ZM40.2842 29.6669H39.7927L39.6823 29.9731H39.5227L39.9708 28.7998H40.1061L40.555 29.9731H40.3962L40.2842 29.6669ZM39.8394 29.5396H40.2383L40.0384 28.9908L39.8394 29.5396ZM41.4189 28.9272H41.0417V29.9731H40.8878V28.9272H40.5115V28.7998H41.4189V28.9272ZM42.1764 29.6669H41.6848L41.5744 29.9731H41.4148L41.8629 28.7998H41.9983L42.4471 29.9731H42.2884L42.1764 29.6669ZM41.7315 29.5396H42.1304L41.9306 28.9908L41.7315 29.5396ZM43.7115 29.4727C43.7115 29.6473 43.6817 29.7771 43.6221 29.8619C43.5624 29.9468 43.4692 29.9893 43.3424 29.9893C43.2172 29.9893 43.1246 29.9479 43.0644 29.8652C43.0042 29.7819 42.9731 29.6578 42.9709 29.4929V29.2938C42.9709 29.1214 43.0007 28.9932 43.0604 28.9094C43.12 28.8256 43.2135 28.7837 43.3408 28.7837C43.4671 28.7837 43.56 28.8243 43.6196 28.9054C43.6793 28.986 43.7099 29.1106 43.7115 29.2793V29.4727ZM43.5624 29.2688C43.5624 29.1426 43.5447 29.0507 43.5092 28.9932C43.4738 28.9352 43.4176 28.9062 43.3408 28.9062C43.2645 28.9062 43.2089 28.9349 43.174 28.9924C43.1391 29.0499 43.1211 29.1383 43.12 29.2576V29.4961C43.12 29.6229 43.1383 29.7166 43.1748 29.7773C43.2119 29.8375 43.2677 29.8676 43.3424 29.8676C43.416 29.8676 43.4706 29.8391 43.506 29.7822C43.542 29.7252 43.5608 29.6355 43.5624 29.513V29.2688ZM43.971 29.3849L44.0306 28.7998H44.6318V28.9376H44.1571L44.1217 29.2576C44.1792 29.2237 44.2444 29.2068 44.3175 29.2068C44.4244 29.2068 44.5093 29.2422 44.5721 29.3132C44.635 29.3835 44.6664 29.4789 44.6664 29.5992C44.6664 29.7201 44.6337 29.8155 44.5681 29.8853C44.5031 29.9546 44.412 29.9893 44.2949 29.9893C44.1912 29.9893 44.1066 29.9605 44.0411 29.903C43.9755 29.8456 43.9382 29.766 43.9291 29.6645H44.0701C44.0792 29.7317 44.1031 29.7824 44.1418 29.8168C44.1805 29.8507 44.2315 29.8676 44.2949 29.8676C44.3642 29.8676 44.4185 29.8439 44.4577 29.7967C44.4975 29.7494 44.5173 29.6841 44.5173 29.6008C44.5173 29.5224 44.4959 29.4596 44.4529 29.4123C44.4104 29.3645 44.3538 29.3406 44.2828 29.3406C44.2178 29.3406 44.1668 29.3548 44.1297 29.3833L44.0902 29.4155L43.971 29.3849Z" fill="#F5F7F6"/>
<path d="M47.653 29.9731V28.7998H47.9842C48.0863 28.7998 48.1766 28.8224 48.255 28.8675C48.3334 28.9127 48.3939 28.9768 48.4363 29.0601C48.4793 29.1434 48.5011 29.239 48.5016 29.347V29.4219C48.5016 29.5326 48.4801 29.6296 48.4371 29.7129C48.3947 29.7961 48.3337 29.8601 48.2542 29.9046C48.1752 29.9492 48.0831 29.9721 47.9778 29.9731H47.653ZM47.8078 28.9272V29.8466H47.9705C48.0898 29.8466 48.1825 29.8096 48.2486 29.7354C48.3152 29.6613 48.3485 29.5557 48.3485 29.4187V29.3502C48.3485 29.217 48.3171 29.1136 48.2542 29.04C48.1919 28.9658 48.1032 28.9282 47.9883 28.9272H47.8078ZM49.3663 29.6669H48.8747L48.7643 29.9731H48.6047L49.0528 28.7998H49.1882L49.637 29.9731H49.4783L49.3663 29.6669ZM48.9214 29.5396H49.3203L49.1205 28.9908L48.9214 29.5396ZM50.5009 28.9272H50.1238V29.9731H49.9698V28.9272H49.5935V28.7998H50.5009V28.9272ZM51.2584 29.6669H50.7668L50.6564 29.9731H50.4969L50.9449 28.7998H51.0803L51.5292 29.9731H51.3704L51.2584 29.6669ZM50.8136 29.5396H51.2125L51.0126 28.9908L50.8136 29.5396ZM52.7935 29.4727C52.7935 29.6473 52.7637 29.7771 52.7041 29.8619C52.6444 29.9468 52.5512 29.9893 52.4245 29.9893C52.2993 29.9893 52.2066 29.9479 52.1464 29.8652C52.0863 29.7819 52.0551 29.6578 52.053 29.4929V29.2938C52.053 29.1214 52.0828 28.9932 52.1424 28.9094C52.202 28.8256 52.2955 28.7837 52.4228 28.7837C52.5491 28.7837 52.642 28.8243 52.7017 28.9054C52.7613 28.986 52.7919 29.1106 52.7935 29.2793V29.4727ZM52.6444 29.2688C52.6444 29.1426 52.6267 29.0507 52.5913 28.9932C52.5558 28.9352 52.4997 28.9062 52.4228 28.9062C52.3466 28.9062 52.291 28.9349 52.256 28.9924C52.2211 29.0499 52.2031 29.1383 52.202 29.2576V29.4961C52.202 29.6229 52.2203 29.7166 52.2568 29.7773C52.2939 29.8375 52.3498 29.8676 52.4245 29.8676C52.4981 29.8676 52.5526 29.8391 52.588 29.7822C52.624 29.7252 52.6428 29.6355 52.6444 29.513V29.2688ZM53.5696 28.799V28.9255H53.5422C53.4261 28.9277 53.3337 28.9621 53.265 29.0287C53.1962 29.0953 53.1564 29.1891 53.1457 29.3099C53.2075 29.239 53.2918 29.2036 53.3987 29.2036C53.5008 29.2036 53.5822 29.2396 53.6429 29.3115C53.7041 29.3835 53.7348 29.4765 53.7348 29.5904C53.7348 29.7112 53.7017 29.8079 53.6356 29.8805C53.5701 29.953 53.482 29.9893 53.3713 29.9893C53.259 29.9893 53.168 29.9463 53.0981 29.8603C53.0283 29.7738 52.9934 29.6626 52.9934 29.5267V29.4695C52.9934 29.2535 53.0393 29.0886 53.1312 28.9747C53.2236 28.8603 53.3608 28.8017 53.543 28.799H53.5696ZM53.3737 29.3277C53.3227 29.3277 53.2757 29.343 53.2327 29.3736C53.1897 29.4042 53.1599 29.4426 53.1433 29.4888V29.5436C53.1433 29.6403 53.165 29.7182 53.2085 29.7773C53.2521 29.8364 53.3063 29.866 53.3713 29.866C53.4385 29.866 53.4911 29.8413 53.5293 29.7918C53.5679 29.7424 53.5873 29.6777 53.5873 29.5976C53.5873 29.517 53.5677 29.452 53.5285 29.4026C53.4898 29.3526 53.4382 29.3277 53.3737 29.3277Z" fill="#F5F7F6"/>
<path d="M56.6875 29.9731V28.7998H57.0187C57.1207 28.7998 57.211 28.8224 57.2894 28.8675C57.3679 28.9127 57.4283 28.9768 57.4707 29.0601C57.5137 29.1434 57.5355 29.239 57.536 29.347V29.4219C57.536 29.5326 57.5145 29.6296 57.4715 29.7129C57.4291 29.7961 57.3681 29.8601 57.2886 29.9046C57.2096 29.9492 57.1175 29.9721 57.0122 29.9731H56.6875ZM56.8422 28.9272V29.8466H57.005C57.1242 29.8466 57.2169 29.8096 57.283 29.7354C57.3496 29.6613 57.3829 29.5557 57.3829 29.4187V29.3502C57.3829 29.217 57.3515 29.1136 57.2886 29.04C57.2263 28.9658 57.1377 28.9282 57.0227 28.9272H56.8422ZM58.4007 29.6669H57.9091L57.7987 29.9731H57.6392L58.0872 28.7998H58.2226L58.6715 29.9731H58.5127L58.4007 29.6669ZM57.9559 29.5396H58.3548L58.1549 28.9908L57.9559 29.5396ZM59.5353 28.9272H59.1582V29.9731H59.0043V28.9272H58.6279V28.7998H59.5353V28.9272ZM60.2928 29.6669H59.8012L59.6908 29.9731H59.5313L59.9793 28.7998H60.1147L60.5636 29.9731H60.4048L60.2928 29.6669ZM59.848 29.5396H60.2469L60.047 28.9908L59.848 29.5396ZM61.828 29.4727C61.828 29.6473 61.7981 29.7771 61.7385 29.8619C61.6789 29.9468 61.5857 29.9893 61.4589 29.9893C61.3337 29.9893 61.241 29.9479 61.1809 29.8652C61.1207 29.7819 61.0895 29.6578 61.0874 29.4929V29.2938C61.0874 29.1214 61.1172 28.9932 61.1768 28.9094C61.2365 28.8256 61.3299 28.7837 61.4573 28.7837C61.5835 28.7837 61.6765 28.8243 61.7361 28.9054C61.7957 28.986 61.8263 29.1106 61.828 29.2793V29.4727ZM61.6789 29.2688C61.6789 29.1426 61.6611 29.0507 61.6257 28.9932C61.5902 28.9352 61.5341 28.9062 61.4573 28.9062C61.381 28.9062 61.3254 28.9349 61.2905 28.9924C61.2555 29.0499 61.2375 29.1383 61.2365 29.2576V29.4961C61.2365 29.6229 61.2547 29.7166 61.2913 29.7773C61.3283 29.8375 61.3842 29.8676 61.4589 29.8676C61.5325 29.8676 61.587 29.8391 61.6225 29.7822C61.6585 29.7252 61.6773 29.6355 61.6789 29.513V29.2688ZM62.7764 28.8836L62.2905 29.9731H62.1342L62.6185 28.9223H61.9835V28.7998H62.7764V28.8836Z" fill="#F5F7F6"/>
<path d="M65.5767 29.9731V28.7998H65.9079C66.01 28.7998 66.1003 28.8224 66.1787 28.8675C66.2571 28.9127 66.3176 28.9768 66.36 29.0601C66.403 29.1434 66.4248 29.239 66.4253 29.347V29.4219C66.4253 29.5326 66.4038 29.6296 66.3608 29.7129C66.3184 29.7961 66.2574 29.8601 66.1779 29.9046C66.0989 29.9492 66.0068 29.9721 65.9015 29.9731H65.5767ZM65.7315 28.9272V29.8466H65.8942C66.0135 29.8466 66.1062 29.8096 66.1723 29.7354C66.2389 29.6613 66.2722 29.5557 66.2722 29.4187V29.3502C66.2722 29.217 66.2408 29.1136 66.1779 29.04C66.1156 28.9658 66.0269 28.9282 65.912 28.9272H65.7315ZM67.29 29.6669H66.7984L66.688 29.9731H66.5284L66.9765 28.7998H67.1119L67.5607 29.9731H67.402L67.29 29.6669ZM66.8451 29.5396H67.244L67.0442 28.9908L66.8451 29.5396ZM68.4246 28.9272H68.0475V29.9731H67.8935V28.9272H67.5172V28.7998H68.4246V28.9272ZM69.1821 29.6669H68.6905L68.5801 29.9731H68.4206L68.8686 28.7998H69.004L69.4529 29.9731H69.2941L69.1821 29.6669ZM68.7373 29.5396H69.1362L68.9363 28.9908L68.7373 29.5396ZM70.7172 29.4727C70.7172 29.6473 70.6874 29.7771 70.6278 29.8619C70.5682 29.9468 70.4749 29.9893 70.3482 29.9893C70.223 29.9893 70.1303 29.9479 70.0701 29.8652C70.01 29.7819 69.9788 29.6578 69.9767 29.4929V29.2938C69.9767 29.1214 70.0065 28.9932 70.0661 28.9094C70.1257 28.8256 70.2192 28.7837 70.3465 28.7837C70.4728 28.7837 70.5657 28.8243 70.6254 28.9054C70.685 28.986 70.7156 29.1106 70.7172 29.2793V29.4727ZM70.5682 29.2688C70.5682 29.1426 70.5504 29.0507 70.515 28.9932C70.4795 28.9352 70.4234 28.9062 70.3465 28.9062C70.2703 28.9062 70.2147 28.9349 70.1797 28.9924C70.1448 29.0499 70.1268 29.1383 70.1257 29.2576V29.4961C70.1257 29.6229 70.144 29.7166 70.1805 29.7773C70.2176 29.8375 70.2735 29.8676 70.3482 29.8676C70.4218 29.8676 70.4763 29.8391 70.5117 29.7822C70.5477 29.7252 70.5665 29.6355 70.5682 29.513V29.2688ZM71.6198 29.1061C71.6198 29.1646 71.6042 29.2167 71.573 29.2624C71.5424 29.3081 71.5008 29.3438 71.4481 29.3696C71.5094 29.3959 71.5577 29.4343 71.5932 29.4848C71.6292 29.5353 71.6472 29.5925 71.6472 29.6564C71.6472 29.758 71.6128 29.8388 71.544 29.899C71.4758 29.9592 71.3858 29.9893 71.2741 29.9893C71.1613 29.9893 71.0707 29.9592 71.0025 29.899C70.9348 29.8383 70.901 29.7574 70.901 29.6564C70.901 29.5931 70.9182 29.5358 70.9525 29.4848C70.9875 29.4338 71.0355 29.3951 71.0968 29.3688C71.0447 29.343 71.0036 29.3072 70.9735 29.2616C70.9434 29.2159 70.9284 29.1641 70.9284 29.1061C70.9284 29.0072 70.9601 28.9288 71.0235 28.8707C71.0869 28.8127 71.1704 28.7837 71.2741 28.7837C71.3772 28.7837 71.4605 28.8127 71.5239 28.8707C71.5878 28.9288 71.6198 29.0072 71.6198 29.1061ZM71.4981 29.6532C71.4981 29.5877 71.4772 29.5342 71.4352 29.4929C71.3939 29.4515 71.3396 29.4308 71.2725 29.4308C71.2053 29.4308 71.1513 29.4512 71.1105 29.4921C71.0702 29.5329 71.0501 29.5866 71.0501 29.6532C71.0501 29.7198 71.0697 29.7722 71.1089 29.8104C71.1486 29.8485 71.2037 29.8676 71.2741 29.8676C71.3439 29.8676 71.3987 29.8485 71.4385 29.8104C71.4782 29.7717 71.4981 29.7193 71.4981 29.6532ZM71.2741 28.9062C71.2155 28.9062 71.168 28.9245 71.1314 28.961C71.0954 28.997 71.0775 29.0462 71.0775 29.1085C71.0775 29.1681 71.0952 29.2165 71.1306 29.2535C71.1666 29.2901 71.2144 29.3083 71.2741 29.3083C71.3337 29.3083 71.3813 29.2901 71.4167 29.2535C71.4527 29.2165 71.4707 29.1681 71.4707 29.1085C71.4707 29.0488 71.4522 29.0002 71.4151 28.9626C71.378 28.925 71.331 28.9062 71.2741 28.9062Z" fill="#F5F7F6"/>
<defs>
<linearGradient id="paint0_linear_736_5487" x1="3.40992" y1="33.6342" x2="3.40992" y2="5.54287" gradientUnits="userSpaceOnUse">
<stop stop-color="#27B7FF"/>
<stop offset="0.9899" stop-color="#F408AB"/>
</linearGradient>
<linearGradient id="paint1_linear_736_5487" x1="6.45982" y1="33.6344" x2="6.45982" y2="5.54305" gradientUnits="userSpaceOnUse">
<stop stop-color="#27B7FF"/>
<stop offset="0.9899" stop-color="#F408AB"/>
</linearGradient>
<linearGradient id="paint2_linear_736_5487" x1="12.5594" y1="33.6344" x2="12.5594" y2="5.54306" gradientUnits="userSpaceOnUse">
<stop stop-color="#27B7FF"/>
<stop offset="0.9899" stop-color="#F408AB"/>
</linearGradient>
<linearGradient id="paint3_linear_736_5487" x1="15.6092" y1="33.6344" x2="15.6092" y2="5.54311" gradientUnits="userSpaceOnUse">
<stop stop-color="#27B7FF"/>
<stop offset="0.9899" stop-color="#F408AB"/>
</linearGradient>
<linearGradient id="paint4_linear_736_5487" x1="21.7089" y1="33.6343" x2="21.7089" y2="5.54307" gradientUnits="userSpaceOnUse">
<stop stop-color="#27B7FF"/>
<stop offset="0.9899" stop-color="#F408AB"/>
</linearGradient>
<linearGradient id="paint5_linear_736_5487" x1="24.7588" y1="33.6343" x2="24.7588" y2="5.543" gradientUnits="userSpaceOnUse">
<stop stop-color="#27B7FF"/>
<stop offset="0.9899" stop-color="#F408AB"/>
</linearGradient>
<linearGradient id="paint6_linear_736_5487" x1="30.8584" y1="33.6344" x2="30.8584" y2="5.54307" gradientUnits="userSpaceOnUse">
<stop stop-color="#27B7FF"/>
<stop offset="0.9899" stop-color="#F408AB"/>
</linearGradient>
<linearGradient id="paint7_linear_736_5487" x1="33.9082" y1="33.6343" x2="33.9082" y2="5.54298" gradientUnits="userSpaceOnUse">
<stop stop-color="#27B7FF"/>
<stop offset="0.9899" stop-color="#F408AB"/>
</linearGradient>
<linearGradient id="paint8_linear_736_5487" x1="40.0079" y1="33.6343" x2="40.0079" y2="5.54307" gradientUnits="userSpaceOnUse">
<stop stop-color="#27B7FF"/>
<stop offset="0.9899" stop-color="#F408AB"/>
</linearGradient>
<linearGradient id="paint9_linear_736_5487" x1="43.0577" y1="33.6342" x2="43.0577" y2="5.5429" gradientUnits="userSpaceOnUse">
<stop stop-color="#27B7FF"/>
<stop offset="0.9899" stop-color="#F408AB"/>
</linearGradient>
<linearGradient id="paint10_linear_736_5487" x1="49.1573" y1="33.6343" x2="49.1573" y2="5.54293" gradientUnits="userSpaceOnUse">
<stop stop-color="#27B7FF"/>
<stop offset="0.9899" stop-color="#F408AB"/>
</linearGradient>
<linearGradient id="paint11_linear_736_5487" x1="52.2072" y1="33.6344" x2="52.2072" y2="5.54309" gradientUnits="userSpaceOnUse">
<stop stop-color="#27B7FF"/>
<stop offset="0.9899" stop-color="#F408AB"/>
</linearGradient>
<linearGradient id="paint12_linear_736_5487" x1="58.3069" y1="33.6344" x2="58.3069" y2="5.5431" gradientUnits="userSpaceOnUse">
<stop stop-color="#27B7FF"/>
<stop offset="0.9899" stop-color="#F408AB"/>
</linearGradient>
<linearGradient id="paint13_linear_736_5487" x1="61.3567" y1="33.6343" x2="61.3567" y2="5.54298" gradientUnits="userSpaceOnUse">
<stop stop-color="#27B7FF"/>
<stop offset="0.9899" stop-color="#F408AB"/>
</linearGradient>
<linearGradient id="paint14_linear_736_5487" x1="67.4564" y1="33.6344" x2="67.4564" y2="5.54305" gradientUnits="userSpaceOnUse">
<stop stop-color="#27B7FF"/>
<stop offset="0.9899" stop-color="#F408AB"/>
</linearGradient>
<linearGradient id="paint15_linear_736_5487" x1="70.5062" y1="33.6344" x2="70.5062" y2="5.54305" gradientUnits="userSpaceOnUse">
<stop stop-color="#27B7FF"/>
<stop offset="0.9899" stop-color="#F408AB"/>
</linearGradient>
</defs>
</svg>
