<svg width="57" height="64" viewBox="0 0 57 64" fill="none" xmlns="http://www.w3.org/2000/svg">
<path d="M36.4082 0.698975C33.2232 0.698975 30.141 1.12516 27.2033 1.90904C24.1629 2.71956 21.29 3.92963 18.6263 5.46695C15.9284 7.0271 13.4474 8.92592 11.2593 11.1139C9.07133 13.302 7.17251 15.7868 5.60855 18.4847C4.06743 21.1446 2.86116 24.0213 2.05065 27.0617C1.26676 29.9994 0.840576 33.0816 0.840576 36.2666H4.97688C4.97688 33.4546 5.3536 30.73 6.04996 28.131C6.76915 25.4483 7.83843 22.9064 9.20071 20.5586C10.582 18.1765 12.2601 15.9847 14.1932 14.0516C16.1263 12.1185 18.3181 10.4404 20.7002 9.05911C23.0518 7.69683 25.5899 6.62755 28.2726 5.90836C30.8678 5.212 33.5962 4.83528 36.4082 4.83528V0.698975Z" fill="url(#paint0_radial_736_5445)"/>
<path d="M28.2725 5.90828C25.5898 6.62748 23.0479 7.69675 20.7001 9.05903C18.318 10.4403 16.1262 12.1185 14.1931 14.0515C12.2601 15.9846 10.5819 18.1764 9.20063 20.5585C7.83835 22.9101 6.76908 25.4482 6.04989 28.1309C5.35353 30.7261 4.97681 33.4545 4.97681 36.2666C4.97681 39.0786 5.35353 41.8032 6.04989 44.4022C6.76908 47.0849 7.83835 49.6268 9.20063 51.9746C10.5819 54.3567 12.2601 56.5485 14.1931 58.4816L17.1155 55.5592C15.4336 53.8772 13.98 51.9784 12.7814 49.9084C11.5979 47.8688 10.6695 45.6617 10.0454 43.3291C9.44036 41.0764 9.11311 38.7057 9.11311 36.2666C9.11311 33.8236 9.44036 31.4567 10.0454 29.204C10.6695 26.8752 11.5979 24.6682 12.7814 22.6247C13.98 20.5547 15.4374 18.6559 17.1155 16.9739C18.7975 15.292 20.6963 13.8384 22.7663 12.6398C24.806 11.4563 27.013 10.5279 29.3456 9.9038C31.5983 9.29876 33.969 8.97151 36.4082 8.97151V4.83521C33.5961 4.83521 30.8715 5.21192 28.2725 5.90828Z" fill="url(#paint1_linear_736_5445)"/>
<path d="M14.037 30.2735C14.566 28.2947 15.3536 26.4264 16.3582 24.6912C17.3742 22.9369 18.6109 21.3235 20.0379 19.8965C21.4649 18.4696 23.0783 17.2367 24.8325 16.2169C26.5639 15.2123 28.4361 14.4246 30.4148 13.8957C32.3289 13.382 34.338 13.1042 36.4081 13.1042V8.97168C33.9651 8.97168 31.5982 9.29893 29.3455 9.90396C27.0167 10.528 24.8097 11.4565 22.7663 12.6399C20.6962 13.8386 18.7974 15.296 17.1155 16.9741C15.4336 18.656 13.9799 20.5549 12.7813 22.6249C11.5979 24.6645 10.6694 26.8716 10.0453 29.2042C9.44029 31.4569 9.11304 33.8238 9.11304 36.2667C9.11304 38.7097 9.44029 41.0766 10.0453 43.3293C10.6694 45.6581 11.5979 47.8651 12.7813 49.9085C13.9799 51.9786 15.4374 53.8774 17.1155 55.5593C18.7974 57.2413 20.6962 58.6949 22.7663 59.8935C24.8059 61.0769 27.0129 62.0054 29.3455 62.6295C31.6021 63.2345 33.9689 63.5618 36.4081 63.5618V59.4293C34.3342 59.4293 32.3289 59.1515 30.4148 58.6378C28.4361 58.1088 26.5677 57.3212 24.8325 56.3166C23.0783 55.3006 21.4649 54.0639 20.0379 52.6369C18.6109 51.2099 17.378 49.5965 16.3582 47.8423C15.3536 46.1109 14.566 44.2387 14.037 42.26C13.5233 40.346 13.2455 38.3368 13.2455 36.2667C13.2455 34.1929 13.5233 32.1875 14.037 30.2735Z" fill="url(#paint2_radial_736_5445)"/>
<path d="M52.8773 45.7759C52.0401 47.2181 51.0279 48.5423 49.8559 49.7143C48.6839 50.8863 47.3597 51.9023 45.9175 52.7357C44.4943 53.5614 42.957 54.2083 41.3321 54.6421C39.7606 55.0645 38.1129 55.2928 36.4082 55.2928C34.7072 55.2928 33.0557 55.0645 31.4842 54.6421C29.8593 54.2083 28.322 53.5614 26.8988 52.7357C25.4566 51.8985 24.1324 50.8863 22.9604 49.7143C21.7884 48.5423 20.7762 47.2181 19.939 45.7759C19.1133 44.3527 18.4664 42.8154 18.0326 41.1905C17.6102 39.619 17.3819 37.9675 17.3819 36.2666C17.3819 34.5656 17.6102 32.9141 18.0326 31.3426C18.4664 29.7177 19.1133 28.1804 19.939 26.7572C20.7762 25.315 21.7884 23.9908 22.9604 22.8188C24.1324 21.6468 25.4566 20.6346 26.8988 19.7974C28.322 18.9717 29.8593 18.3248 31.4842 17.891C33.0557 17.4686 34.7072 17.2403 36.4082 17.2403V13.104C34.3343 13.104 32.3289 13.3818 30.4149 13.8955C28.4362 14.4244 26.5678 15.2121 24.8326 16.2167C23.0784 17.2327 21.4649 18.4694 20.038 19.8964C18.611 21.3233 17.3781 22.9368 16.3583 24.691C15.3537 26.4224 14.566 28.2946 14.0371 30.2733C13.5234 32.1873 13.2456 34.1965 13.2456 36.2666C13.2456 38.3404 13.5234 40.3458 14.0371 42.2598C14.566 44.2385 15.3537 46.1069 16.3583 47.8421C17.3743 49.5963 18.611 51.2098 20.038 52.6367C21.4649 54.0637 23.0784 55.2966 24.8326 56.3164C26.564 57.321 28.4362 58.1087 30.4149 58.6376C32.3289 59.1513 34.3381 59.4291 36.4082 59.4291C38.482 59.4291 40.4874 59.1513 42.4014 58.6376C44.3802 58.1087 46.2485 57.321 47.9837 56.3164C49.7379 55.3004 51.3514 54.0637 52.7783 52.6367C54.2053 51.2098 55.4382 49.5963 56.458 47.8421L52.8773 45.7759Z" fill="url(#paint3_linear_736_5445)"/>
<path d="M51.2981 36.2665C51.2981 37.5983 51.1193 38.8883 50.7882 40.1212C50.4457 41.3921 49.9396 42.5946 49.2966 43.7095C48.6421 44.8397 47.8468 45.8747 46.9335 46.7918C46.0164 47.7089 44.9814 48.5042 43.8512 49.1587C42.7363 49.8055 41.5338 50.3116 40.2629 50.6503C39.0338 50.9814 37.7438 51.1602 36.4082 51.1602C35.0763 51.1602 33.7864 50.9814 32.5535 50.6503C31.2825 50.3078 30.0801 49.8017 28.9651 49.1587C27.835 48.5042 26.7999 47.7089 25.8829 46.7956C24.9658 45.8823 24.1705 44.8397 23.5198 43.7133C22.8729 42.5984 22.3668 41.396 22.0281 40.125C21.6971 38.8959 21.5182 37.6059 21.5182 36.2703C21.5182 34.9384 21.6971 33.6485 22.0281 32.4156C22.3706 31.1446 22.8767 29.9422 23.5198 28.8272C24.1743 27.6971 24.9696 26.662 25.8867 25.745C26.8037 24.8279 27.8388 24.0326 28.9689 23.3819C30.0839 22.735 31.2863 22.2289 32.5573 21.8902C33.7864 21.5592 35.0763 21.3803 36.412 21.3803V17.2402C34.711 17.2402 33.0596 17.4685 31.488 17.8909C29.8632 18.3247 28.3258 18.9716 26.9027 19.7974C25.4605 20.6345 24.1363 21.6467 22.9642 22.8187C21.7922 23.9907 20.78 25.315 19.9429 26.7572C19.1171 28.1803 18.4702 29.7176 18.0364 31.3425C17.6141 32.9141 17.3857 34.5617 17.3857 36.2665C17.3857 37.9674 17.6141 39.6189 18.0364 41.1905C18.4702 42.8153 19.1171 44.3526 19.9429 45.7758C20.78 47.218 21.7922 48.5422 22.9642 49.7142C24.1363 50.8862 25.4605 51.8984 26.9027 52.7356C28.3258 53.5613 29.8632 54.2082 31.488 54.642C33.0596 55.0644 34.711 55.2927 36.412 55.2927C38.1129 55.2927 39.7644 55.0644 41.336 54.642C42.9608 54.2082 44.4981 53.5613 45.9213 52.7356C47.3635 51.8984 48.6877 50.8862 49.8597 49.7142C51.0318 48.5422 52.0439 47.218 52.8811 45.7758C53.7068 44.3526 54.3537 42.8153 54.7875 41.1905C55.2099 39.6189 55.4382 37.9712 55.4382 36.2665H51.2981V36.2665Z" fill="url(#paint4_radial_736_5445)"/>
<path opacity="0.77" d="M54.0988 35.9964C53.7564 34.7254 53.2503 33.523 52.6072 32.4081C51.9527 31.2779 51.1574 30.2429 50.2441 29.3258C49.3271 28.4087 48.292 27.6134 47.1619 26.9627C46.0469 26.3159 44.8445 25.8098 43.5735 25.4711C42.3444 25.14 41.0544 24.9612 39.7188 24.9612C38.387 24.9612 37.097 25.14 35.8641 25.4711C34.5931 25.8136 33.3907 26.3197 32.2757 26.9627C31.1456 27.6172 30.1105 28.4125 29.1935 29.3258C28.2764 30.2429 27.4811 31.2779 26.8304 32.4081C26.1835 33.523 25.6774 34.7254 25.3388 35.9964C25.0077 37.2255 24.8289 38.5155 24.8289 39.8511C24.8289 41.183 25.0077 42.4729 25.3388 43.7058C25.6812 44.9768 26.1873 46.1792 26.8304 47.2942C27.4849 48.4243 28.2802 49.4594 29.1935 50.3764C30.1067 51.2935 31.1494 52.0888 32.2757 52.7395C33.3907 53.3864 34.5931 53.8925 35.8641 54.2312C37.0932 54.5622 38.3832 54.7411 39.7188 54.7411C41.0506 54.7411 42.3406 54.5622 43.5735 54.2312C44.8445 53.8887 46.0469 53.3826 47.1619 52.7395C48.292 52.085 49.3271 51.2897 50.2441 50.3726C51.1612 49.4556 51.9565 48.4205 52.6072 47.2904C53.2541 46.1754 53.7602 44.973 54.0988 43.702C54.4299 42.4729 54.6087 41.183 54.6087 39.8473C54.6087 38.5193 54.4299 37.2293 54.0988 35.9964Z" fill="url(#paint5_radial_736_5445)"/>
<path d="M50.7882 32.4117C50.4457 31.1407 49.9396 29.9383 49.2965 28.8233C48.642 27.6932 47.8467 26.6582 46.9335 25.7411C46.0164 24.824 44.9814 24.0287 43.8512 23.378C42.7363 22.7311 41.5338 22.225 40.2629 21.8864C39.0338 21.5553 37.7438 21.3765 36.4081 21.3765C35.0763 21.3765 33.7863 21.5553 32.5534 21.8864C31.2825 22.2288 30.08 22.7349 28.9651 23.378C27.8349 24.0325 26.7999 24.8278 25.8828 25.7411C24.9658 26.6582 24.1705 27.6932 23.516 28.8233C22.8691 29.9383 22.363 31.1407 22.0243 32.4117C21.6933 33.6408 21.5144 34.9308 21.5144 36.2664C21.5144 37.5982 21.6933 38.8882 22.0243 40.1211C22.3668 41.3921 22.8729 42.5945 23.516 43.7095C24.1705 44.8396 24.9658 45.8747 25.879 46.7917C26.7923 47.7088 27.8311 48.5041 28.9613 49.1548C30.0762 49.8017 31.2787 50.3078 32.5496 50.6464C33.7787 50.9775 35.0687 51.1563 36.4043 51.1563C37.7362 51.1563 39.0262 50.9775 40.2591 50.6464C41.53 50.304 42.7325 49.7979 43.8474 49.1548C44.9776 48.5003 46.0126 47.705 46.9297 46.7879C47.8467 45.8708 48.642 44.8358 49.2927 43.7057C49.9396 42.5907 50.4457 41.3883 50.7844 40.1173C51.1154 38.8882 51.2943 37.5982 51.2943 36.2626C51.2981 34.9346 51.1192 33.6446 50.7882 32.4117Z" fill="url(#paint6_linear_736_5445)"/>
<path d="M47.4281 33.3137C47.1656 32.3395 46.7774 31.4186 46.2828 30.5663C45.7805 29.7025 45.1716 28.9072 44.4715 28.2032C43.7675 27.4992 42.976 26.8942 42.1084 26.3919C41.256 25.8972 40.3352 25.5091 39.361 25.2465C38.4173 24.9954 37.4279 24.8584 36.4081 24.8584C35.3883 24.8584 34.399 24.9954 33.4553 25.2465C32.4811 25.5091 31.5602 25.8972 30.7079 26.3919C29.8441 26.8942 29.0488 27.503 28.3448 28.2032C27.6408 28.9072 27.0358 29.6987 26.5335 30.5663C26.0388 31.4186 25.6507 32.3395 25.3881 33.3137C25.137 34.2574 25 35.2467 25 36.2665C25 37.2863 25.137 38.2757 25.3881 39.2194C25.6507 40.1936 26.0388 41.1144 26.5335 41.9668C27.0358 42.8306 27.6446 43.6259 28.3448 44.3299C29.0488 45.0338 29.8403 45.6389 30.7079 46.1412C31.5602 46.6358 32.4811 47.024 33.4553 47.2865C34.399 47.5377 35.3883 47.6747 36.4081 47.6747C37.4279 47.6747 38.4173 47.5377 39.361 47.2865C40.3352 47.024 41.256 46.6358 42.1084 46.1412C42.9722 45.6389 43.7675 45.03 44.4715 44.3299C45.1754 43.6259 45.7805 42.8344 46.2828 41.9668C46.7774 41.1144 47.1656 40.1936 47.4281 39.2194C47.6793 38.2757 47.8163 37.2863 47.8163 36.2665C47.8163 35.2467 47.6793 34.2574 47.4281 33.3137Z" fill="#F5F7F6"/>
<path d="M47.4014 3.79657L49.2621 2.7349L47.4014 1.66943V2.62836H38.4058V2.83765H47.4014V3.79657Z" fill="#F5F7F6"/>
<path d="M47.4014 6.79882H38.4058V7.00811H47.4014V7.91756L49.2621 6.85209L47.4014 5.78662V6.79882Z" fill="#F5F7F6"/>
<path d="M47.4014 10.9542H38.4058V11.1597H47.4014V12.1224L49.2621 11.0569L47.4014 9.99146V10.9542Z" fill="#F5F7F6"/>
<path d="M47.4014 15.3454H38.4058V15.5546H47.4014V16.4108L49.2621 15.3454L47.4014 14.2837V15.3454Z" fill="#F5F7F6"/>
<path d="M47.4014 19.5844H38.4058V19.7937H47.4014V20.7564L49.2621 19.691L47.4014 18.6255V19.5844Z" fill="#F5F7F6"/>
<path d="M52.2814 18.1644L51.5268 19.8564H51.284L52.0361 18.2245H51.05V18.0343H52.2814V18.1644ZM52.6506 18.9429L52.7432 18.0343H53.6768V18.2483H52.9397L52.8846 18.7451C52.9739 18.6926 53.0753 18.6663 53.1888 18.6663C53.3548 18.6663 53.4866 18.7214 53.5842 18.8315C53.6818 18.9408 53.7306 19.0889 53.7306 19.2758C53.7306 19.4635 53.6797 19.6116 53.578 19.72C53.477 19.8277 53.3356 19.8815 53.1537 19.8815C52.9927 19.8815 52.8613 19.8368 52.7595 19.7476C52.6577 19.6583 52.5997 19.5348 52.5855 19.3771H52.8045C52.8187 19.4814 52.8559 19.5603 52.9159 19.6137C52.976 19.6662 53.0553 19.6925 53.1537 19.6925C53.2613 19.6925 53.3456 19.6558 53.4065 19.5824C53.4682 19.509 53.4991 19.4076 53.4991 19.2783C53.4991 19.1565 53.4657 19.0588 53.399 18.9854C53.3331 18.9112 53.2451 18.874 53.1349 18.874C53.034 18.874 52.9547 18.8961 52.8972 18.9404L52.8358 18.9904L52.6506 18.9429ZM53.9634 18.3847C53.9634 18.2754 53.998 18.1853 54.0673 18.1144C54.1374 18.0435 54.2271 18.008 54.3364 18.008C54.4473 18.008 54.537 18.0439 54.6054 18.1156C54.6747 18.1866 54.7093 18.2787 54.7093 18.3922V18.4811C54.7093 18.5912 54.6743 18.6813 54.6042 18.7514C54.5349 18.8206 54.4465 18.8553 54.3389 18.8553C54.2304 18.8553 54.1407 18.8206 54.0698 18.7514C53.9989 18.6813 53.9634 18.5883 53.9634 18.4723V18.3847ZM54.1361 18.4811C54.1361 18.5461 54.1545 18.6 54.1912 18.6425C54.2279 18.6842 54.2771 18.7051 54.3389 18.7051C54.3981 18.7051 54.4457 18.6846 54.4815 18.6438C54.5182 18.6029 54.5366 18.547 54.5366 18.4761V18.3847C54.5366 18.3196 54.5187 18.2658 54.4828 18.2233C54.4469 18.1807 54.3981 18.1594 54.3364 18.1594C54.2746 18.1594 54.2258 18.1807 54.1899 18.2233C54.1541 18.2658 54.1361 18.3213 54.1361 18.3897V18.4811ZM54.8507 19.4097C54.8507 19.3004 54.8853 19.2107 54.9546 19.1406C55.0247 19.0697 55.1144 19.0342 55.2237 19.0342C55.3329 19.0342 55.4226 19.0693 55.4927 19.1393C55.5628 19.2094 55.5978 19.3025 55.5978 19.4184V19.5073C55.5978 19.6166 55.5628 19.7067 55.4927 19.7776C55.4235 19.8477 55.3346 19.8827 55.2262 19.8827C55.1177 19.8827 55.028 19.8481 54.9571 19.7789C54.8862 19.7088 54.8507 19.6157 54.8507 19.4998V19.4097ZM55.0234 19.5073C55.0234 19.5732 55.0418 19.6274 55.0785 19.67C55.1152 19.7117 55.1644 19.7325 55.2262 19.7325C55.2862 19.7325 55.3342 19.7121 55.3701 19.6712C55.406 19.6295 55.4239 19.5732 55.4239 19.5023V19.4097C55.4239 19.3438 55.4055 19.2899 55.3688 19.2482C55.3329 19.2065 55.2846 19.1857 55.2237 19.1857C55.1644 19.1857 55.116 19.2065 55.0785 19.2482C55.0418 19.2891 55.0234 19.3446 55.0234 19.4147V19.5073ZM54.3914 19.7188L54.26 19.6362L55.1498 18.212L55.2812 18.2946L54.3914 19.7188Z" fill="#F5F7F6"/>
<path d="M52.0136 13.9395V14.136H51.9711C51.7909 14.1394 51.6473 14.1928 51.5406 14.2962C51.4338 14.3997 51.372 14.5453 51.3553 14.733C51.4513 14.6228 51.5823 14.5678 51.7483 14.5678C51.9068 14.5678 52.0332 14.6237 52.1275 14.7355C52.2226 14.8473 52.2702 14.9916 52.2702 15.1685C52.2702 15.3562 52.2189 15.5064 52.1162 15.619C52.0144 15.7317 51.8776 15.788 51.7058 15.788C51.5314 15.788 51.39 15.7212 51.2815 15.5877C51.173 15.4534 51.1188 15.2807 51.1188 15.0696V14.9808C51.1188 14.6454 51.1901 14.3892 51.3328 14.2124C51.4763 14.0346 51.6895 13.9437 51.9723 13.9395H52.0136ZM51.7095 14.7605C51.6302 14.7605 51.5572 14.7843 51.4905 14.8318C51.4238 14.8794 51.3774 14.9391 51.3516 15.0108V15.0959C51.3516 15.2461 51.3854 15.3671 51.453 15.4588C51.5205 15.5506 51.6048 15.5965 51.7058 15.5965C51.81 15.5965 51.8918 15.5581 51.951 15.4814C52.0111 15.4046 52.0411 15.3041 52.0411 15.1798C52.0411 15.0546 52.0107 14.9537 51.9498 14.8769C51.8897 14.7993 51.8096 14.7605 51.7095 14.7605ZM53.6868 14.9858C53.6868 15.2569 53.6405 15.4584 53.5479 15.5902C53.4553 15.7221 53.3106 15.788 53.1137 15.788C52.9193 15.788 52.7753 15.7237 52.6819 15.5952C52.5885 15.4659 52.5401 15.2732 52.5367 15.0171V14.7079C52.5367 14.4401 52.583 14.2411 52.6756 14.111C52.7683 13.9808 52.9134 13.9158 53.1112 13.9158C53.3072 13.9158 53.4516 13.9788 53.5442 14.1047C53.6368 14.2299 53.6843 14.4234 53.6868 14.6854V14.9858ZM53.4553 14.6691C53.4553 14.4731 53.4278 14.3304 53.3727 14.2411C53.3177 14.151 53.2305 14.106 53.1112 14.106C52.9927 14.106 52.9063 14.1506 52.8521 14.2399C52.7979 14.3292 52.7699 14.4664 52.7683 14.6516V15.0221C52.7683 15.219 52.7966 15.3646 52.8534 15.4588C52.9109 15.5523 52.9977 15.599 53.1137 15.599C53.228 15.599 53.3126 15.5548 53.3677 15.4663C53.4236 15.3779 53.4528 15.2386 53.4553 15.0483V14.6691ZM53.9634 14.2912C53.9634 14.1819 53.998 14.0918 54.0673 14.0209C54.1374 13.95 54.2271 13.9145 54.3364 13.9145C54.4473 13.9145 54.537 13.9504 54.6054 14.0221C54.6747 14.0931 54.7093 14.1852 54.7093 14.2987V14.3876C54.7093 14.4977 54.6743 14.5878 54.6042 14.6579C54.5349 14.7271 54.4465 14.7618 54.3389 14.7618C54.2304 14.7618 54.1407 14.7271 54.0698 14.6579C53.9989 14.5878 53.9634 14.4948 53.9634 14.3788V14.2912ZM54.1361 14.3876C54.1361 14.4526 54.1545 14.5065 54.1912 14.549C54.2279 14.5907 54.2771 14.6116 54.3389 14.6116C54.3981 14.6116 54.4457 14.5911 54.4815 14.5503C54.5182 14.5094 54.5366 14.4535 54.5366 14.3826V14.2912C54.5366 14.2261 54.5187 14.1723 54.4828 14.1298C54.4469 14.0872 54.3981 14.0659 54.3364 14.0659C54.2746 14.0659 54.2258 14.0872 54.1899 14.1298C54.1541 14.1723 54.1361 14.2278 54.1361 14.2962V14.3876ZM54.8507 15.3162C54.8507 15.2069 54.8853 15.1172 54.9546 15.0471C55.0247 14.9762 55.1144 14.9407 55.2237 14.9407C55.3329 14.9407 55.4226 14.9758 55.4927 15.0458C55.5628 15.1159 55.5978 15.209 55.5978 15.3249V15.4138C55.5978 15.5231 55.5628 15.6132 55.4927 15.6841C55.4235 15.7542 55.3346 15.7892 55.2262 15.7892C55.1177 15.7892 55.028 15.7546 54.9571 15.6853C54.8862 15.6153 54.8507 15.5222 54.8507 15.4063V15.3162ZM55.0234 15.4138C55.0234 15.4797 55.0418 15.5339 55.0785 15.5765C55.1152 15.6182 55.1644 15.639 55.2262 15.639C55.2862 15.639 55.3342 15.6186 55.3701 15.5777C55.406 15.536 55.4239 15.4797 55.4239 15.4088V15.3162C55.4239 15.2503 55.4055 15.1964 55.3688 15.1547C55.3329 15.113 55.2846 15.0921 55.2237 15.0921C55.1644 15.0921 55.116 15.113 55.0785 15.1547C55.0418 15.1956 55.0234 15.2511 55.0234 15.3212V15.4138ZM54.3914 15.6253L54.26 15.5427L55.1498 14.1185L55.2812 14.2011L54.3914 15.6253Z" fill="#F5F7F6"/>
<path d="M51.2114 10.6846L51.304 9.77599H52.2376V9.99H51.5005L51.4454 10.4868C51.5347 10.4343 51.6361 10.408 51.7496 10.408C51.9156 10.408 52.0474 10.4631 52.145 10.5732C52.2426 10.6825 52.2914 10.8306 52.2914 11.0175C52.2914 11.2052 52.2405 11.3533 52.1388 11.4617C52.0378 11.5694 51.8964 11.6232 51.7145 11.6232C51.5535 11.6232 51.4221 11.5785 51.3203 11.4893C51.2185 11.4 51.1605 11.2765 51.1463 11.1188H51.3653C51.3795 11.2231 51.4167 11.302 51.4767 11.3554C51.5368 11.4079 51.6161 11.4342 51.7145 11.4342C51.8221 11.4342 51.9064 11.3975 51.9673 11.3241C52.029 11.2507 52.0599 11.1493 52.0599 11.02C52.0599 10.8982 52.0265 10.8005 51.9598 10.7271C51.8939 10.6529 51.8059 10.6157 51.6957 10.6157C51.5948 10.6157 51.5155 10.6378 51.458 10.6821L51.3966 10.7321L51.2114 10.6846ZM53.6868 10.821C53.6868 11.0921 53.6405 11.2936 53.5479 11.4254C53.4553 11.5573 53.3106 11.6232 53.1137 11.6232C52.9193 11.6232 52.7753 11.5589 52.6819 11.4304C52.5885 11.3011 52.5401 11.1084 52.5367 10.8523V10.5431C52.5367 10.2753 52.583 10.0763 52.6756 9.94619C52.7683 9.81604 52.9134 9.75096 53.1112 9.75096C53.3072 9.75096 53.4516 9.81396 53.5442 9.93994C53.6368 10.0651 53.6843 10.2586 53.6868 10.5206V10.821ZM53.4553 10.5044C53.4553 10.3083 53.4278 10.1656 53.3727 10.0763C53.3177 9.98624 53.2305 9.94119 53.1112 9.94119C52.9927 9.94119 52.9063 9.98582 52.8521 10.0751C52.7979 10.1644 52.7699 10.3016 52.7683 10.4868V10.8573C52.7683 11.0542 52.7966 11.1998 52.8534 11.294C52.9109 11.3875 52.9977 11.4342 53.1137 11.4342C53.228 11.4342 53.3126 11.39 53.3677 11.3015C53.4236 11.2131 53.4528 11.0738 53.4553 10.8836V10.5044ZM53.9634 10.1264C53.9634 10.0171 53.998 9.92701 54.0673 9.85609C54.1374 9.78517 54.2271 9.74971 54.3364 9.74971C54.4473 9.74971 54.537 9.78559 54.6054 9.85734C54.6747 9.92826 54.7093 10.0204 54.7093 10.1339V10.2228C54.7093 10.3329 54.6743 10.423 54.6042 10.4931C54.5349 10.5623 54.4465 10.597 54.3389 10.597C54.2304 10.597 54.1407 10.5623 54.0698 10.4931C53.9989 10.423 53.9634 10.33 53.9634 10.214V10.1264ZM54.1361 10.2228C54.1361 10.2878 54.1545 10.3417 54.1912 10.3842C54.2279 10.4259 54.2771 10.4468 54.3389 10.4468C54.3981 10.4468 54.4457 10.4263 54.4815 10.3855C54.5182 10.3446 54.5366 10.2887 54.5366 10.2178V10.1264C54.5366 10.0613 54.5187 10.0075 54.4828 9.96497C54.4469 9.92242 54.3981 9.90114 54.3364 9.90114C54.2746 9.90114 54.2258 9.92242 54.1899 9.96497C54.1541 10.0075 54.1361 10.063 54.1361 10.1314V10.2228ZM54.8507 11.1514C54.8507 11.0421 54.8853 10.9524 54.9546 10.8823C55.0247 10.8114 55.1144 10.7759 55.2237 10.7759C55.3329 10.7759 55.4226 10.811 55.4927 10.881C55.5628 10.9511 55.5978 11.0442 55.5978 11.1601V11.249C55.5978 11.3583 55.5628 11.4484 55.4927 11.5193C55.4235 11.5894 55.3346 11.6244 55.2262 11.6244C55.1177 11.6244 55.028 11.5898 54.9571 11.5206C54.8862 11.4505 54.8507 11.3574 54.8507 11.2415V11.1514ZM55.0234 11.249C55.0234 11.3149 55.0418 11.3691 55.0785 11.4117C55.1152 11.4534 55.1644 11.4742 55.2262 11.4742C55.2862 11.4742 55.3342 11.4538 55.3701 11.4129C55.406 11.3712 55.4239 11.3149 55.4239 11.244V11.1514C55.4239 11.0855 55.4055 11.0316 55.3688 10.9899C55.3329 10.9482 55.2846 10.9274 55.2237 10.9274C55.1644 10.9274 55.116 10.9482 55.0785 10.9899C55.0418 11.0308 55.0234 11.0863 55.0234 11.1564V11.249ZM54.3914 11.4605L54.26 11.3779L55.1498 9.9537L55.2812 10.0363L54.3914 11.4605Z" fill="#F5F7F6"/>
<path d="M51.4417 6.16037H51.6156C51.7249 6.15871 51.8109 6.12992 51.8734 6.07402C51.936 6.01812 51.9673 5.94262 51.9673 5.8475C51.9673 5.63392 51.8609 5.52713 51.6482 5.52713C51.5481 5.52713 51.468 5.55591 51.4079 5.61348C51.3487 5.67021 51.319 5.74572 51.319 5.84H51.0875C51.0875 5.69566 51.1401 5.57593 51.2452 5.48082C51.3512 5.38488 51.4855 5.3369 51.6482 5.3369C51.8201 5.3369 51.9548 5.38237 52.0524 5.47331C52.15 5.56425 52.1988 5.69065 52.1988 5.85251C52.1988 5.93177 52.173 6.00853 52.1212 6.08278C52.0703 6.15704 52.0007 6.21252 51.9122 6.24923C52.0124 6.28093 52.0895 6.33349 52.1438 6.40691C52.1988 6.48033 52.2264 6.57002 52.2264 6.67598C52.2264 6.83951 52.173 6.96925 52.0662 7.06519C51.9594 7.16114 51.8205 7.20911 51.6494 7.20911C51.4784 7.20911 51.3391 7.16281 51.2314 7.0702C51.1246 6.97759 51.0713 6.85536 51.0713 6.70351H51.304C51.304 6.79946 51.3353 6.87622 51.3979 6.93379C51.4605 6.99135 51.5443 7.02014 51.6494 7.02014C51.7612 7.02014 51.8468 6.99094 51.906 6.93254C51.9652 6.87413 51.9948 6.79028 51.9948 6.68099C51.9948 6.57503 51.9623 6.49368 51.8972 6.43695C51.8322 6.38022 51.7383 6.35102 51.6156 6.34935H51.4417V6.16037ZM53.6868 6.40691C53.6868 6.67807 53.6405 6.87956 53.5479 7.01138C53.4553 7.1432 53.3106 7.20911 53.1137 7.20911C52.9193 7.20911 52.7753 7.14487 52.6819 7.01638C52.5885 6.88706 52.5401 6.69434 52.5367 6.4382V6.12909C52.5367 5.86127 52.583 5.66229 52.6756 5.53213C52.7683 5.40198 52.9134 5.3369 53.1112 5.3369C53.3072 5.3369 53.4516 5.39989 53.5442 5.52587C53.6368 5.65102 53.6843 5.84458 53.6868 6.10656V6.40691ZM53.4553 6.09029C53.4553 5.89423 53.4278 5.75156 53.3727 5.66229C53.3177 5.57218 53.2305 5.52713 53.1112 5.52713C52.9927 5.52713 52.9063 5.57176 52.8521 5.66103C52.7979 5.75031 52.7699 5.88755 52.7683 6.07277V6.44321C52.7683 6.64011 52.7966 6.7857 52.8534 6.87997C52.9109 6.97342 52.9977 7.02014 53.1137 7.02014C53.228 7.02014 53.3126 6.97592 53.3677 6.88748C53.4236 6.79904 53.4528 6.65971 53.4553 6.46949V6.09029ZM53.9634 5.71235C53.9634 5.60305 53.998 5.51294 54.0673 5.44203C54.1374 5.37111 54.2271 5.33565 54.3364 5.33565C54.4473 5.33565 54.537 5.37153 54.6054 5.44328C54.6747 5.51419 54.7093 5.60639 54.7093 5.71985V5.80871C54.7093 5.91884 54.6743 6.00895 54.6042 6.07903C54.5349 6.14828 54.4465 6.1829 54.3389 6.1829C54.2304 6.1829 54.1407 6.14828 54.0698 6.07903C53.9989 6.00895 53.9634 5.91592 53.9634 5.79995V5.71235ZM54.1361 5.80871C54.1361 5.87379 54.1545 5.9276 54.1912 5.97015C54.2279 6.01187 54.2771 6.03272 54.3389 6.03272C54.3981 6.03272 54.4457 6.01228 54.4815 5.9714C54.5182 5.93052 54.5366 5.87462 54.5366 5.8037V5.71235C54.5366 5.64727 54.5187 5.59345 54.4828 5.5509C54.4469 5.50835 54.3981 5.48708 54.3364 5.48708C54.2746 5.48708 54.2258 5.50835 54.1899 5.5509C54.1541 5.59345 54.1361 5.64894 54.1361 5.71735V5.80871ZM54.8507 6.7373C54.8507 6.62801 54.8853 6.53832 54.9546 6.46824C55.0247 6.39732 55.1144 6.36186 55.2237 6.36186C55.3329 6.36186 55.4226 6.3969 55.4927 6.46699C55.5628 6.53707 55.5978 6.63009 55.5978 6.74607V6.83492C55.5978 6.94422 55.5628 7.03432 55.4927 7.10524C55.4235 7.17532 55.3346 7.21036 55.2262 7.21036C55.1177 7.21036 55.028 7.17574 54.9571 7.10649C54.8862 7.03641 54.8507 6.94338 54.8507 6.82741V6.7373ZM55.0234 6.83492C55.0234 6.90083 55.0418 6.95506 55.0785 6.99761C55.1152 7.03933 55.1644 7.06019 55.2262 7.06019C55.2862 7.06019 55.3342 7.03975 55.3701 6.99886C55.406 6.95715 55.4239 6.90083 55.4239 6.82991V6.7373C55.4239 6.67139 55.4055 6.61758 55.3688 6.57586C55.3329 6.53415 55.2846 6.51329 55.2237 6.51329C55.1644 6.51329 55.116 6.53415 55.0785 6.57586C55.0418 6.61675 55.0234 6.67223 55.0234 6.74231V6.83492ZM54.3914 7.04642L54.26 6.96382L55.1498 5.53964L55.2812 5.62224L54.3914 7.04642Z" fill="#F5F7F6"/>
<path d="M51.8659 2.69897H51.6331V1.1559L51.1663 1.32736V1.11711L51.8296 0.868064H51.8659V2.69897ZM52.6506 1.7854L52.7432 0.876824H53.6768V1.09083H52.9396L52.8846 1.58766C52.9739 1.5351 53.0752 1.50882 53.1887 1.50882C53.3547 1.50882 53.4865 1.56388 53.5842 1.67401C53.6818 1.78331 53.7306 1.9314 53.7306 2.11829C53.7306 2.30601 53.6797 2.4541 53.5779 2.56256C53.4769 2.67019 53.3355 2.724 53.1536 2.724C52.9926 2.724 52.8612 2.67937 52.7594 2.5901C52.6576 2.50082 52.5997 2.37735 52.5855 2.21966H52.8045C52.8187 2.32395 52.8558 2.40279 52.9159 2.45619C52.9759 2.50875 53.0552 2.53503 53.1536 2.53503C53.2613 2.53503 53.3455 2.49832 53.4064 2.4249C53.4682 2.35148 53.4991 2.25011 53.4991 2.12079C53.4991 1.99898 53.4657 1.90137 53.3989 1.82795C53.333 1.75369 53.245 1.71657 53.1349 1.71657C53.0339 1.71657 52.9547 1.73867 52.8971 1.78289L52.8358 1.83295L52.6506 1.7854ZM53.9634 1.22724C53.9634 1.11794 53.998 1.02784 54.0672 0.956919C54.1373 0.886002 54.227 0.850543 54.3363 0.850543C54.4473 0.850543 54.5369 0.886419 54.6054 0.95817C54.6746 1.02909 54.7092 1.12128 54.7092 1.23475V1.3236C54.7092 1.43373 54.6742 1.52384 54.6041 1.59392C54.5349 1.66317 54.4464 1.69779 54.3388 1.69779C54.2303 1.69779 54.1406 1.66317 54.0697 1.59392C53.9988 1.52384 53.9634 1.43081 53.9634 1.31484V1.22724ZM54.1361 1.3236C54.1361 1.38868 54.1544 1.44249 54.1911 1.48504C54.2278 1.52676 54.2771 1.54762 54.3388 1.54762C54.398 1.54762 54.4456 1.52717 54.4815 1.48629C54.5182 1.44541 54.5365 1.38951 54.5365 1.3186V1.22724C54.5365 1.16216 54.5186 1.10835 54.4827 1.0658C54.4468 1.02325 54.398 1.00197 54.3363 1.00197C54.2746 1.00197 54.2257 1.02325 54.1899 1.0658C54.154 1.10835 54.1361 1.16383 54.1361 1.23224V1.3236ZM54.8507 2.2522C54.8507 2.1429 54.8853 2.05321 54.9545 1.98313C55.0246 1.91221 55.1143 1.87675 55.2236 1.87675C55.3329 1.87675 55.4226 1.9118 55.4927 1.98188C55.5627 2.05196 55.5978 2.14499 55.5978 2.26096V2.34981C55.5978 2.45911 55.5627 2.54921 55.4927 2.62013C55.4234 2.69021 55.3346 2.72526 55.2261 2.72526C55.1176 2.72526 55.0279 2.69063 54.957 2.62138C54.8861 2.5513 54.8507 2.45827 54.8507 2.3423V2.2522ZM55.0234 2.34981C55.0234 2.41572 55.0417 2.46995 55.0784 2.5125C55.1151 2.55422 55.1644 2.57508 55.2261 2.57508C55.2862 2.57508 55.3341 2.55464 55.37 2.51376C55.4059 2.47204 55.4238 2.41572 55.4238 2.34481V2.2522C55.4238 2.18629 55.4055 2.13247 55.3688 2.09076C55.3329 2.04904 55.2845 2.02818 55.2236 2.02818C55.1644 2.02818 55.116 2.04904 55.0784 2.09076C55.0417 2.13164 55.0234 2.18712 55.0234 2.2572V2.34981ZM54.3914 2.56131L54.26 2.47871L55.1498 1.05453L55.2812 1.13713L54.3914 2.56131Z" fill="#F5F7F6"/>
<path d="M38.0868 33.8028C37.1245 33.0381 35.7607 33.0253 34.8367 33.7773C34.1739 34.3126 33.8425 35.1156 33.8425 36.1544C33.8425 36.8426 34.4607 37.8304 34.5372 37.9579C34.5435 37.9642 35.0534 38.6525 35.1744 39.4746L35.2063 39.6785H37.7745L37.8064 39.4746C37.9275 38.6525 38.4373 37.9642 38.4501 37.9451C38.5202 37.8368 39.1383 36.849 39.1383 36.1607C39.1319 35.1411 38.7814 34.3509 38.0868 33.8028ZM36.4363 35.1538C36.0029 35.1666 35.6078 35.4342 35.4421 35.8357C35.4039 35.9249 35.3146 35.9823 35.2191 35.9823C35.1872 35.9823 35.1553 35.9759 35.1235 35.9632C35.0024 35.9122 34.945 35.772 34.996 35.6509C35.2382 35.0774 35.799 34.695 36.4171 34.6759C36.5446 34.6695 36.6593 34.7778 36.6593 34.9117C36.672 35.0391 36.5701 35.1475 36.4363 35.1538Z" fill="#193566"/>
<path d="M37.7553 40.7556H35.1042C34.9704 40.7556 34.8621 40.6472 34.8621 40.5134C34.8621 40.3796 34.9704 40.2712 35.1042 40.2712H37.7553C37.8891 40.2712 37.9975 40.3796 37.9975 40.5134C37.9975 40.6472 37.8891 40.7556 37.7553 40.7556Z" fill="#193566"/>
<path d="M37.1563 40.6282H35.646V41.2591H37.1563V40.6282Z" fill="#193566"/>
<path d="M36.3788 32.6813C36.245 32.6813 36.1367 32.573 36.1367 32.4392V31.7636C36.1367 31.6298 36.245 31.5215 36.3788 31.5215C36.5127 31.5215 36.621 31.6298 36.621 31.7636V32.4392C36.621 32.5794 36.5127 32.6813 36.3788 32.6813Z" fill="#193566"/>
<path d="M34.4606 33.223C34.3778 33.223 34.2949 33.1784 34.2503 33.1019L33.9125 32.5156C33.8488 32.4009 33.887 32.2543 34.0018 32.1906C34.1165 32.1269 34.263 32.1651 34.3268 32.2798L34.6645 32.8661C34.7283 32.9808 34.69 33.1274 34.5753 33.1911C34.5434 33.2166 34.5052 33.223 34.4606 33.223Z" fill="#193566"/>
<path d="M33.0714 34.6568C33.0332 34.6568 32.9886 34.6441 32.9504 34.625L32.3641 34.2872C32.2493 34.2235 32.2111 34.0769 32.2748 33.9622C32.3386 33.8475 32.4851 33.8093 32.5999 33.873L33.1862 34.2107C33.3009 34.2745 33.3391 34.421 33.2754 34.5358C33.2371 34.6122 33.1543 34.6568 33.0714 34.6568Z" fill="#193566"/>
<path d="M32.5808 36.5878H31.9053C31.7714 36.5878 31.6631 36.4795 31.6631 36.3457C31.6631 36.2119 31.7714 36.1035 31.9053 36.1035H32.5808C32.7146 36.1035 32.8229 36.2119 32.8229 36.3457C32.8229 36.4795 32.7146 36.5878 32.5808 36.5878Z" fill="#193566"/>
<path d="M32.5425 38.8439C32.4597 38.8439 32.3768 38.7992 32.3322 38.7228C32.2685 38.6081 32.3067 38.4615 32.4214 38.3978L33.0077 38.06C33.1224 37.9963 33.269 38.0345 33.3327 38.1492C33.3965 38.2639 33.3582 38.4105 33.2435 38.4742L32.6572 38.812C32.6254 38.8311 32.5808 38.8439 32.5425 38.8439Z" fill="#193566"/>
<path d="M40.381 38.7545C40.3428 38.7545 40.2982 38.7418 40.2599 38.7226L39.6736 38.3849C39.5589 38.3212 39.5207 38.1746 39.5844 38.0599C39.6481 37.9451 39.7947 37.9069 39.9094 37.9706L40.4957 38.3084C40.6104 38.3721 40.6487 38.5187 40.5849 38.6334C40.5403 38.7099 40.4639 38.7545 40.381 38.7545Z" fill="#193566"/>
<path d="M40.9609 36.4795H40.2854C40.1516 36.4795 40.0432 36.3711 40.0432 36.2373C40.0432 36.1035 40.1516 35.9951 40.2854 35.9951H40.9609C41.0947 35.9951 41.2031 36.1035 41.2031 36.2373C41.2031 36.3711 41.0947 36.4795 40.9609 36.4795Z" fill="#193566"/>
<path d="M39.7437 34.5611C39.6608 34.5611 39.578 34.5165 39.5334 34.4401C39.4697 34.3253 39.5079 34.1788 39.6226 34.115L40.2089 33.7773C40.3236 33.7136 40.4702 33.7518 40.5339 33.8665C40.5976 33.9812 40.5594 34.1278 40.4447 34.1915L39.8584 34.5293C39.8265 34.5548 39.7819 34.5611 39.7437 34.5611Z" fill="#193566"/>
<path d="M38.3162 33.172C38.278 33.172 38.2334 33.1592 38.1951 33.1401C38.0804 33.0764 38.0422 32.9298 38.1059 32.8151L38.4437 32.2288C38.5074 32.1141 38.654 32.0759 38.7687 32.1396C38.8834 32.2033 38.9216 32.3499 38.8579 32.4646L38.5201 33.0509C38.4755 33.1274 38.3927 33.172 38.3162 33.172Z" fill="#193566"/>
<defs>
<radialGradient id="paint0_radial_736_5445" cx="0" cy="0" r="1" gradientUnits="userSpaceOnUse" gradientTransform="translate(18.6246 29.6154) rotate(-90) scale(30.6043)">
<stop stop-color="#0066FF"/>
<stop offset="0.276042" stop-color="#0066FF"/>
<stop offset="0.6406" stop-color="#0097CE"/>
<stop offset="1" stop-color="#0058CB"/>
</radialGradient>
<linearGradient id="paint1_linear_736_5445" x1="20.6923" y1="68.2842" x2="20.6923" y2="6.8677" gradientUnits="userSpaceOnUse">
<stop stop-color="#27B7FF"/>
<stop offset="0.9899" stop-color="#F408AB"/>
</linearGradient>
<radialGradient id="paint2_radial_736_5445" cx="0" cy="0" r="1" gradientUnits="userSpaceOnUse" gradientTransform="translate(22.7601 29.6154) rotate(-90) scale(30.6044)">
<stop stop-color="#0066FF"/>
<stop offset="0.307292" stop-color="#0066FF"/>
<stop offset="0.651042" stop-color="#0097CE"/>
<stop offset="0.9819" stop-color="#0058CB"/>
</radialGradient>
<linearGradient id="paint3_linear_736_5445" x1="34.8522" y1="68.2842" x2="34.8522" y2="6.86747" gradientUnits="userSpaceOnUse">
<stop stop-color="#27B7FF"/>
<stop offset="0.9899" stop-color="#F408AB"/>
</linearGradient>
<radialGradient id="paint4_radial_736_5445" cx="0" cy="0" r="1" gradientUnits="userSpaceOnUse" gradientTransform="translate(36.4086 29.6153) rotate(-90) scale(30.6042)">
<stop stop-color="#0066FF"/>
<stop offset="0.338542" stop-color="#0066FF"/>
<stop offset="0.692708" stop-color="#0097CE"/>
<stop offset="0.9819" stop-color="#0058CB"/>
</radialGradient>
<radialGradient id="paint5_radial_736_5445" cx="0" cy="0" r="1" gradientUnits="userSpaceOnUse" gradientTransform="translate(39.7172 39.8512) scale(14.8897 14.8897)">
<stop offset="0.000116"/>
<stop offset="0.0894" stop-color="#1D1D1D"/>
<stop offset="0.3464" stop-color="#6C6C6C"/>
<stop offset="0.5751" stop-color="#ABABAB"/>
<stop offset="0.7669" stop-color="#D9D9D9"/>
<stop offset="0.9145" stop-color="#F5F5F5"/>
<stop offset="1" stop-color="white"/>
</radialGradient>
<linearGradient id="paint6_linear_736_5445" x1="49.6428" y1="49.501" x2="25.184" y2="25.0423" gradientUnits="userSpaceOnUse">
<stop stop-color="#071A35"/>
<stop offset="1" stop-color="#193566"/>
</linearGradient>
</defs>
</svg>
