<svg width="70" height="33" viewBox="0 0 70 33" fill="none" xmlns="http://www.w3.org/2000/svg">
<path d="M68.9597 12.5129V32.597H0.202637V7.55842C3.32675 7.55842 3.32674 12.509 6.45085 12.509C9.57876 12.509 9.57876 2.25391 12.7029 2.25391C15.827 2.25391 15.827 19.408 18.9549 19.408C22.079 19.408 22.079 7.55842 25.2031 7.55842C28.3272 7.55842 28.3272 15.5152 31.4513 15.5152C34.5792 15.5152 34.5792 12.1552 37.7034 12.1552C40.8275 12.1552 40.8275 16.9307 43.9554 16.9307C47.0795 16.9307 47.0795 12.0676 50.2074 12.0676C53.3315 12.0676 53.3315 23.2969 56.4556 23.2969C59.5835 23.2969 59.5835 2.87035 62.7076 2.87035C65.8317 2.87416 65.8318 12.5129 68.9597 12.5129Z" fill="url(#paint0_linear_736_5541)"/>
<path d="M56.4556 23.4757C54.7584 23.4757 53.9822 20.6865 53.1602 17.7336C52.4106 15.0357 51.6343 12.2502 50.2074 12.2502C48.7385 12.2502 48.0079 13.3918 47.2278 14.6019C46.4325 15.8386 45.6144 17.1134 43.9553 17.1134C42.2962 17.1134 41.4743 15.8576 40.6828 14.6437C39.9065 13.4565 39.1721 12.3378 37.7071 12.3378C36.2231 12.3378 35.4887 13.1254 34.7124 13.9626C33.9171 14.815 33.0951 15.6978 31.4551 15.6978C29.7732 15.6978 28.955 13.6163 28.1674 11.6072C27.4215 9.70453 26.6491 7.74103 25.2069 7.74103C23.7799 7.74103 23.0036 10.6863 22.254 13.5326C21.4321 16.6453 20.6558 19.5868 18.9587 19.5868C17.2463 19.5868 16.4738 15.3477 15.6595 10.8613C14.9403 6.91148 14.1222 2.4327 12.7104 2.4327C11.2797 2.4327 10.5034 4.97461 9.75375 7.4366C8.93182 10.1383 8.15175 12.6917 6.45842 12.6917C4.79933 12.6917 3.97738 11.3903 3.18589 10.1345C2.40962 8.90543 1.6752 7.74103 0.210183 7.74103C0.111246 7.74103 0.0351562 7.66111 0.0351562 7.56598C0.0351562 7.46705 0.115052 7.39094 0.210183 7.39094C1.86927 7.39094 2.69122 8.69233 3.48271 9.94807C4.25898 11.1772 4.9934 12.3416 6.45842 12.3416C7.88919 12.3416 8.66545 9.79586 9.41508 7.33767C10.237 4.63594 11.0171 2.08643 12.7104 2.08643C14.419 2.08643 15.1915 6.32167 16.0096 10.8081C16.7288 14.7617 17.5469 19.2405 18.9625 19.2405C20.3894 19.2405 21.1657 16.2952 21.9153 13.4489C22.7373 10.3362 23.5135 7.39475 25.2107 7.39475C26.8926 7.39475 27.7107 9.47622 28.4984 11.4854C29.2442 13.388 30.0167 15.3515 31.4589 15.3515C32.9467 15.3515 33.6773 14.5638 34.4574 13.7267C35.2527 12.8743 36.0708 11.9915 37.7109 11.9915C39.37 11.9915 40.1881 13.2472 40.9834 14.4573C41.7597 15.6445 42.4941 16.7633 43.9629 16.7633C45.428 16.7633 46.1624 15.6217 46.9386 14.4154C47.7339 13.1787 48.5559 11.904 50.215 11.904C51.9121 11.904 52.6884 14.6932 53.5103 17.6461C54.2599 20.344 55.0362 23.1332 56.4632 23.1332C57.8749 23.1332 58.6931 17.7869 59.4161 13.0722C60.375 6.81254 61.1208 2.71049 62.719 2.71049C64.4085 2.71049 65.2229 5.22195 66.0106 7.6497C66.7602 9.95948 67.5326 12.3454 68.9672 12.3454C69.0662 12.3454 69.1423 12.4253 69.1423 12.5204C69.1423 12.6194 69.0624 12.6955 68.9672 12.6955C67.2739 12.6955 66.4596 10.184 65.6719 7.75244C64.9223 5.44265 64.1498 3.05677 62.7152 3.05677C61.3035 3.05677 60.4853 8.40313 59.7623 13.1178C58.7996 19.3737 58.05 23.4757 56.4556 23.4757Z" fill="white"/>
<path d="M14.069 2.21194C14.069 2.99202 13.4373 3.62749 12.6534 3.62749C11.8733 3.62749 11.2379 2.99582 11.2379 2.21194C11.2379 1.43186 11.8695 0.796387 12.6534 0.796387C13.4335 0.796387 14.069 1.43186 14.069 2.21194Z" fill="#018DCE"/>
<path d="M7.52395 12.3377C7.52395 13.1177 6.89227 13.7532 6.10839 13.7532C5.32831 13.7532 4.69285 13.1216 4.69285 12.3377C4.69285 11.5576 5.32451 10.9221 6.10839 10.9221C6.89227 10.9221 7.52395 11.5538 7.52395 12.3377Z" fill="#018DCE"/>
<path d="M20.2488 19.3164C20.2488 20.0965 19.6171 20.732 18.8332 20.732C18.0532 20.732 17.4177 20.1003 17.4177 19.3164C17.4177 18.5364 18.0494 17.9009 18.8332 17.9009C19.6171 17.9047 20.2488 18.5364 20.2488 19.3164Z" fill="#018DCE"/>
<path d="M26.5121 7.66116C26.5121 8.44123 25.8805 9.07671 25.0966 9.07671C24.3165 9.07671 23.681 8.44504 23.681 7.66116C23.681 6.88108 24.3127 6.24561 25.0966 6.24561C25.8766 6.24941 26.5121 6.88108 26.5121 7.66116Z" fill="#018DCE"/>
<path d="M33.0154 15.378C33.0154 16.158 32.3837 16.7935 31.5998 16.7935C30.8198 16.7935 30.1843 16.1618 30.1843 15.378C30.1843 14.5979 30.816 13.9624 31.5998 13.9624C32.3799 13.9624 33.0154 14.5941 33.0154 15.378Z" fill="#018DCE"/>
<path d="M39.1228 12.3948C39.1228 13.1749 38.4912 13.8104 37.7073 13.8104C36.9272 13.8104 36.2917 13.1787 36.2917 12.3948C36.2917 11.6147 36.9234 10.9792 37.7073 10.9792C38.4912 10.9792 39.1228 11.6147 39.1228 12.3948Z" fill="#018DCE"/>
<path d="M45.1387 16.7783C45.1387 17.5584 44.507 18.1939 43.7232 18.1939C42.9431 18.1939 42.3076 17.5622 42.3076 16.7783C42.3076 15.9983 42.9393 15.3628 43.7232 15.3628C44.507 15.3628 45.1387 15.9983 45.1387 16.7783Z" fill="#018DCE"/>
<path d="M51.7371 12.0181C51.7371 12.7982 51.1054 13.4336 50.3215 13.4336C49.5414 13.4336 48.906 12.802 48.906 12.0181C48.906 11.238 49.5376 10.6025 50.3215 10.6025C51.1054 10.6025 51.7371 11.238 51.7371 12.0181Z" fill="#018DCE"/>
<path d="M57.7114 23.1485C57.7114 23.9285 57.0798 24.564 56.2959 24.564C55.5158 24.564 54.8803 23.9323 54.8803 23.1485C54.8803 22.3684 55.512 21.7329 56.2959 21.7329C57.076 21.7329 57.7114 22.3646 57.7114 23.1485Z" fill="#018DCE"/>
<path d="M64.2678 3.00735C64.2678 3.78743 63.6362 4.4229 62.8523 4.4229C62.0722 4.4229 61.4367 3.79123 61.4367 3.00735C61.4367 2.22727 62.0684 1.5918 62.8523 1.5918C63.6324 1.5918 64.2678 2.22347 64.2678 3.00735Z" fill="#018DCE"/>
<defs>
<linearGradient id="paint0_linear_736_5541" x1="34.5811" y1="33.246" x2="34.5811" y2="1.84043" gradientUnits="userSpaceOnUse">
<stop offset="0.0101" stop-opacity="0"/>
<stop offset="1" stop-color="#0198CE"/>
</linearGradient>
</defs>
</svg>
